<svg width="420" height="120" viewBox="0 0 420 120" fill="none" xmlns="http://www.w3.org/2000/svg">
<path fill-rule="evenodd" clip-rule="evenodd" d="M23.9893 5.24069C23.9893 4.00319 22.9861 3 21.7486 3H10.2407C9.00319 3 8 4.00319 8 5.24069V74.3367H8.00418C8.33306 98.5074 28.0291 118 52.278 118C76.732 118 96.5559 98.1761 96.5559 73.722C96.5559 49.268 76.732 29.4441 52.278 29.4441C41.5215 29.4441 31.661 33.2796 23.9893 39.6575V5.24069ZM23.9893 73.722C23.9893 89.3455 36.6545 102.011 52.278 102.011C67.9014 102.011 80.5667 89.3455 80.5667 73.722C80.5667 58.0986 67.9014 45.4333 52.278 45.4333C36.6545 45.4333 23.9893 58.0986 23.9893 73.722Z" fill="#FF455D"/>
<path fill-rule="evenodd" clip-rule="evenodd" d="M242.835 29.4435C218.381 29.4435 198.557 49.2674 198.557 73.7215C198.557 98.1755 218.381 117.999 242.835 117.999C253.592 117.999 263.453 114.164 271.125 107.785V113.914C271.125 115.152 272.128 116.155 273.365 116.155H284.873C286.111 116.155 287.114 115.152 287.114 113.914V73.7217H287.113C287.113 49.2677 267.289 29.4435 242.835 29.4435ZM214.546 73.7215C214.546 58.0981 227.212 45.4328 242.835 45.4328C258.458 45.4328 271.124 58.0981 271.124 73.7215C271.124 89.3449 258.458 102.01 242.835 102.01C227.212 102.01 214.546 89.3449 214.546 73.7215Z" fill="#FF455D"/>
<path fill-rule="evenodd" clip-rule="evenodd" d="M103.279 73.722C103.279 49.268 123.102 29.4441 147.556 29.4441C172.011 29.4441 191.834 49.268 191.834 73.722C191.834 76.0325 191.657 78.3017 191.316 80.5167C191.153 81.5747 190.226 82.3311 189.156 82.3311L120.602 82.3314C124.244 93.745 134.935 102.011 147.556 102.011C155.126 102.011 162.002 99.0374 167.079 94.1948C167.514 93.7796 168.087 93.5346 168.689 93.5346H183.536C185.203 93.5346 186.274 95.2855 185.408 96.7092C177.638 109.475 163.593 118 147.556 118C123.102 118 103.279 98.1761 103.279 73.722ZM147.556 45.4333C134.486 45.4333 123.486 54.2975 120.24 66.3421L174.873 66.3421C171.627 54.2975 160.627 45.4333 147.556 45.4333Z" fill="#FF455D"/>
<path d="M346.504 62.5946C346.472 53.1114 338.775 45.4333 329.285 45.4333C319.776 45.4333 312.067 53.1404 312.065 62.6485L312.065 113.914C312.065 115.152 311.062 116.155 309.825 116.155H298.317C297.079 116.155 296.076 115.152 296.076 113.914C296.076 96.8257 296.074 79.7371 296.076 62.6485C296.078 44.3098 310.945 29.4441 329.285 29.4441C339.371 29.4441 348.408 33.9412 354.498 41.0399C360.589 33.9412 369.625 29.4441 379.712 29.4441C398.053 29.4441 412.921 44.312 412.921 62.6525C412.921 79.7398 412.92 96.8271 412.92 113.914C412.92 115.152 411.917 116.155 410.68 116.155H399.172C397.934 116.155 396.931 115.152 396.931 113.914C396.931 96.8257 396.931 79.7371 396.931 62.6485C396.929 53.1405 389.221 45.4333 379.712 45.4333C370.221 45.4333 362.524 53.1118 362.493 62.5955L362.493 113.914C362.493 115.152 361.49 116.155 360.252 116.155H348.744C347.507 116.155 346.504 115.152 346.504 113.914L346.504 62.5946Z" fill="#FF455D"/>
</svg>
