<svg width="29" height="29" viewBox="0 0 29 29" fill="none" xmlns="http://www.w3.org/2000/svg">
<rect x="3" width="5" height="5" rx="2.5" fill="white"/>
<rect x="21" width="5" height="5" rx="2.5" fill="white"/>
<rect x="3" y="6" width="5" height="5" rx="2.5" fill="white"/>
<rect x="21" y="6" width="5" height="5" rx="2.5" fill="white"/>
<rect x="3" y="12" width="5" height="5" rx="2.5" fill="white"/>
<rect x="21" y="12" width="5" height="5" rx="2.5" fill="white"/>
<rect x="9" y="12" width="5" height="5" rx="2.5" fill="white"/>
<rect x="15" y="12" width="5" height="5" rx="2.5" fill="white"/>
<rect x="3" y="18" width="5" height="5" rx="2.5" fill="white"/>
<rect x="21" y="18" width="5" height="5" rx="2.5" fill="white"/>
<rect x="3" y="24" width="5" height="5" rx="2.5" fill="white"/>
<rect x="21" y="24" width="5" height="5" rx="2.5" fill="white"/>
</svg>
