<svg width="29" height="29" viewBox="0 0 29 29" fill="none" xmlns="http://www.w3.org/2000/svg">
<rect x="29" y="29" width="5" height="5" rx="2.5" transform="rotate(180 29 29)" fill="white"/>
<rect x="5" y="29" width="5" height="5" rx="2.5" transform="rotate(180 5 29)" fill="white"/>
<rect x="29" y="23" width="5" height="5" rx="2.5" transform="rotate(180 29 23)" fill="white"/>
<rect x="5" y="23" width="5" height="5" rx="2.5" transform="rotate(180 5 23)" fill="white"/>
<rect x="29" y="17" width="5" height="5" rx="2.5" transform="rotate(180 29 17)" fill="white"/>
<rect x="5" y="17" width="5" height="5" rx="2.5" transform="rotate(180 5 17)" fill="white"/>
<rect x="23" y="23" width="5" height="5" rx="2.5" transform="rotate(180 23 23)" fill="white"/>
<rect x="11" y="23" width="5" height="5" rx="2.5" transform="rotate(180 11 23)" fill="white"/>
<rect x="17" y="17" width="5" height="5" rx="2.5" transform="rotate(180 17 17)" fill="white"/>
<rect x="29" y="11" width="5" height="5" rx="2.5" transform="rotate(180 29 11)" fill="white"/>
<rect x="5" y="11" width="5" height="5" rx="2.5" transform="rotate(180 5 11)" fill="white"/>
<rect x="29" y="5" width="5" height="5" rx="2.5" transform="rotate(180 29 5)" fill="white"/>
<rect x="5" y="5" width="5" height="5" rx="2.5" transform="rotate(180 5 5)" fill="white"/>
</svg>
