<svg width="32" height="32" viewBox="0 0 32 32" fill="none" xmlns="http://www.w3.org/2000/svg">
<path fill-rule="evenodd" clip-rule="evenodd" d="M8.15278 1.58453C8.15278 1.2617 7.89108 1 7.56825 1H4.58453C4.2617 1 4 1.2617 4 1.58453V19.6096H4.00109C4.0865 25.915 9.20203 31 15.5 31C21.8513 31 27 25.8285 27 19.4492C27 13.0699 21.8513 7.89845 15.5 7.89845C12.7063 7.89845 10.1453 8.89902 8.15278 10.5628V1.58453ZM8.15278 19.4492C8.15278 23.5249 11.4422 26.8289 15.5 26.8289C19.5578 26.8289 22.8472 23.5249 22.8472 19.4492C22.8472 15.3736 19.5578 12.0696 15.5 12.0696C11.4422 12.0696 8.15278 15.3736 8.15278 19.4492Z" fill="#FF455D"/>
</svg>
