<svg width="326" height="94" viewBox="0 0 326 94" fill="none" xmlns="http://www.w3.org/2000/svg"
    class="w-[326px] text-red-light h-[94px] mb-8 bg-primary">
    <path fill-rule="evenodd" clip-rule="evenodd"
        d="M13.2035 2.60884C13.2035 1.61473 12.3976 0.808838 11.4034 0.808838H2.15889C1.16477 0.808838 0.358887 1.61473 0.358887 2.60884V58.1154H0.362244C0.626443 77.5323 16.4488 93.1911 35.9284 93.1911C55.573 93.1911 71.498 77.2661 71.498 57.6216C71.498 37.977 55.573 22.052 35.9284 22.052C27.2876 22.052 19.3663 25.1332 13.2035 30.2567V2.60884ZM13.2035 57.6216C13.2035 70.1722 23.3778 80.3466 35.9284 80.3466C48.4791 80.3466 58.6534 70.1722 58.6534 57.6216C58.6534 45.0709 48.4791 34.8966 35.9284 34.8966C23.3778 34.8966 13.2035 45.0709 13.2035 57.6216Z"
        fill="currentColor"></path>
    <path fill-rule="evenodd" clip-rule="evenodd"
        d="M189.008 22.0516C169.363 22.0516 153.438 37.9766 153.438 57.6211C153.438 77.2656 169.363 93.1907 189.008 93.1907C197.649 93.1907 205.57 90.1093 211.733 84.9854V89.9088C211.733 90.9029 212.539 91.7088 213.533 91.7088H222.778C223.772 91.7088 224.578 90.9029 224.578 89.9088V57.6213H224.577C224.577 37.9768 208.652 22.0516 189.008 22.0516ZM166.283 57.6211C166.283 45.0705 176.457 34.8961 189.008 34.8961C201.558 34.8961 211.733 45.0705 211.733 57.6211C211.733 70.1718 201.558 80.3461 189.008 80.3461C176.457 80.3461 166.283 70.1718 166.283 57.6211Z"
        fill="currentColor"></path>
    <path fill-rule="evenodd" clip-rule="evenodd"
        d="M76.8984 57.6216C76.8984 37.977 92.8235 22.052 112.468 22.052C132.113 22.052 148.038 37.977 148.038 57.6216C148.038 59.4776 147.895 61.3005 147.621 63.0799C147.49 63.9298 146.746 64.5375 145.886 64.5375L90.8146 64.5377C93.7406 73.7065 102.329 80.3466 112.468 80.3466C118.549 80.3466 124.072 77.958 128.151 74.0679C128.5 73.7343 128.961 73.5374 129.444 73.5374H141.371C142.71 73.5374 143.571 74.944 142.875 76.0877C136.633 86.3426 125.35 93.1911 112.468 93.1911C92.8235 93.1911 76.8984 77.2661 76.8984 57.6216ZM112.468 34.8966C101.968 34.8966 93.1317 42.0173 90.5241 51.6931L134.412 51.6931C131.804 42.0173 122.968 34.8966 112.468 34.8966Z"
        fill="currentColor"></path>
    <path
        d="M272.287 48.6827C272.262 41.0645 266.079 34.8966 258.455 34.8966C250.816 34.8966 244.624 41.0879 244.622 48.7259L244.622 89.909C244.622 90.9031 243.816 91.709 242.822 91.709H233.577C232.583 91.709 231.777 90.9032 231.777 89.909C231.777 76.1813 231.776 62.4536 231.777 48.7259C231.779 33.994 243.722 22.052 258.455 22.052C266.558 22.052 273.817 25.6647 278.709 31.3672C283.602 25.6647 290.861 22.052 298.964 22.052C313.698 22.052 325.641 33.9958 325.641 48.7292C325.641 62.4558 325.641 76.1824 325.641 89.909C325.641 90.9032 324.835 91.709 323.841 91.709H314.597C313.603 91.709 312.797 90.9032 312.797 89.909C312.797 76.1813 312.797 62.4536 312.797 48.7259C312.795 41.0879 306.603 34.8966 298.964 34.8966C291.34 34.8966 285.156 41.0649 285.132 48.6833L285.132 89.909C285.132 90.9032 284.326 91.709 283.332 91.709H274.087C273.093 91.709 272.287 90.9032 272.287 89.909L272.287 48.6827Z"
        fill="currentColor"></path>
</svg>