<svg width="24" height="24" viewBox="0 0 24 24" fill="none" xmlns="http://www.w3.org/2000/svg">
<path d="M17.25 7.25C17.25 10.1495 14.8995 12.5 12 12.5C9.1005 12.5 6.75 10.1495 6.75 7.25C6.75 4.3505 9.1005 2 12 2C14.8995 2 17.25 4.3505 17.25 7.25Z" stroke="currentColor" stroke-width="1.5"/>
<path d="M12 12.5C8.23174 12.5 5.10465 14.9878 4.20015 18.4556C4.03228 19.0992 4.3019 19.7618 4.86916 20.1091C6.07786 20.8492 8.5174 22 12 22C15.4826 22 17.9221 20.8492 19.1308 20.1091C19.6981 19.7618 19.9677 19.0992 19.7998 18.4556C18.8954 14.9878 15.7683 12.5 12 12.5Z" stroke="currentColor" stroke-width="1.5" stroke-linecap="round"/>
</svg>
