<svg width="24" height="24" viewBox="0 0 24 24" fill="none" xmlns="http://www.w3.org/2000/svg">
    <path
        d="M13.0688 13.125C14.0157 12.6475 15.0972 12.375 16.2498 12.375C19.3327 12.375 21.907 14.3242 22.7562 16.9335C22.9661 17.5782 22.6664 18.255 22.063 18.5643C21.0522 19.0824 19.2452 19.7823 16.75 19.8666"
        stroke="currentColor" stroke-width="1.5" stroke-linecap="round" />
    <path
        d="M13.7402 4.1151C14.4529 3.64122 15.3085 3.3651 16.2285 3.3651C18.7138 3.3651 20.7286 5.37982 20.7286 7.8651C20.7286 10.3504 18.7138 12.3651 16.2285 12.3651C14.9621 12.3651 13.8179 11.8419 13.0001 11"
        stroke="currentColor" stroke-width="1.5" />
    <path d="M11.5 12L13 11.5L14 12.5L13 13L11.5 12Z" fill="currentColor" />
    <path
        d="M14.25 7.25C14.25 10.1495 11.8995 12.5 9 12.5C6.1005 12.5 3.75 10.1495 3.75 7.25C3.75 4.3505 6.1005 2 9 2C11.8995 2 14.25 4.3505 14.25 7.25Z"
        stroke="currentColor" stroke-width="1.5" />
    <path
        d="M9 12.5C5.23174 12.5 2.10465 14.9878 1.20015 18.4556C1.03228 19.0992 1.3019 19.7618 1.86916 20.1091C3.07786 20.8492 5.5174 22 9 22C12.4826 22 14.9221 20.8492 16.1308 20.1091C16.6981 19.7618 16.9677 19.0992 16.7998 18.4556C15.8954 14.9878 12.7683 12.5 9 12.5Z"
        stroke="currentColor" stroke-width="1.5" stroke-linecap="round" />
</svg>